<svg width="172" height="46" viewBox="0 0 172 46" fill="none" xmlns="http://www.w3.org/2000/svg">
<g id="IMAGE" clip-path="url(#clip0_0_327)">
<path id="Vector" d="M37.2126 45.1662H9.23382C4.63595 45.1662 0.909668 41.4771 0.909668 36.9252V9.22627C0.909668 4.67438 4.63595 0.985352 9.23382 0.985352H37.2126C41.8105 0.985352 45.5367 4.67438 45.5367 9.22627V36.9252C45.5367 41.4771 41.8105 45.1662 37.2126 45.1662Z" fill="#B1B1B1"/>
<path id="Vector_2" d="M31.2629 23.4823C32.0587 24.4702 32.4629 25.6207 32.4629 26.9212C32.4629 28.8345 31.8187 30.3351 30.5303 31.3981C29.2419 32.461 27.3977 33.0113 24.9977 33.0113H14.5135V10.6895H24.7451C27.044 10.6895 28.8124 11.1897 30.0629 12.1776C31.3134 13.1655 31.945 14.5786 31.945 16.4044C31.945 17.7549 31.5787 18.8679 30.8587 19.7683C30.1387 20.6686 29.1914 21.2439 28.0166 21.519C29.3935 21.8441 30.4671 22.4944 31.2629 23.4823ZM19.9577 19.8183H23.5324C25.4272 19.8183 26.3745 19.018 26.3745 17.4173C26.3745 15.8166 25.4019 15.0163 23.4693 15.0163H19.9577V19.8183ZM26.8798 26.1709C26.8798 25.3706 26.6145 24.7453 26.084 24.2952C25.5535 23.845 24.7956 23.6199 23.823 23.6199H19.9703V28.6344H23.8608C25.8693 28.6219 26.8798 27.8091 26.8798 26.1709Z" fill="white"/>
<path id="Vector_3" d="M71.3933 33.0113L66.5176 24.5828H65.2797V33.0113H59.8229V10.6895H69.1323C70.9133 10.6895 72.4291 10.9896 73.6544 11.6024C74.8923 12.2151 75.8143 13.053 76.4333 14.1159C77.0522 15.1789 77.3554 16.3919 77.3554 17.7674C77.3554 19.3931 76.9007 20.7687 76.0038 21.9067C75.0943 23.0446 73.7933 23.82 72.0628 24.2451L77.4185 33.0238H71.3933V33.0113ZM65.2797 20.8937H68.6523C69.7386 20.8937 70.5344 20.6561 71.0396 20.1809C71.5449 19.7057 71.8102 19.0055 71.8102 18.0801C71.8102 17.1922 71.5449 16.5044 71.027 15.9917C70.5091 15.4915 69.7133 15.2289 68.6523 15.2289H65.2797V20.8937Z" fill="#B1B1B1"/>
<path id="Vector_4" d="M102.038 28.947H93.5873L92.1851 33.0237H86.4504L94.7114 10.8645H100.989L109.25 33.0237H103.452L102.038 28.947ZM100.636 24.8328L97.8314 16.6294L94.9893 24.8328H100.636Z" fill="#B1B1B1"/>
<path id="Vector_5" d="M139.351 33.0113H133.894L124.774 19.3056V33.0113H119.317V10.6895H124.774L133.894 24.5202V10.6895H139.351V33.0113Z" fill="#B1B1B1"/>
<path id="Vector_6" d="M169.944 27.6339C168.997 29.3221 167.633 30.6477 165.864 31.598C164.083 32.5484 161.999 33.0236 159.599 33.0236H151.086V10.7019H159.599C162.024 10.7019 164.121 11.1646 165.877 12.09C167.645 13.0153 168.997 14.3159 169.944 16.0041C170.892 17.6923 171.359 19.6181 171.359 21.819C171.359 23.9949 170.879 25.9332 169.944 27.6339ZM164.071 26.5084C165.245 25.3955 165.839 23.8198 165.839 21.8065C165.839 19.7806 165.245 18.2175 164.071 17.1045C162.896 15.9916 161.241 15.4288 159.107 15.4288H156.53V28.1841H159.107C161.241 28.1841 162.896 27.6339 164.071 26.5084Z" fill="#B1B1B1"/>
</g>
<defs>
<clipPath id="clip0_0_327">
<rect width="172" height="46" fill="white"/>
</clipPath>
</defs>
</svg>
