<svg width="62" height="62" viewBox="0 0 62 62" fill="none" xmlns="http://www.w3.org/2000/svg">
<path d="M1 31C1 14.4315 14.4315 1 31 1C47.5685 1 61 14.4315 61 31C61 47.5685 47.5685 61 31 61C14.4315 61 1 47.5685 1 31Z" stroke="#D1B06B" stroke-width="2"/>
<g clip-path="url(#clip0_0_45)">
<path d="M39.3571 23.8003H22.6429C22.4724 23.8003 22.3088 23.8693 22.1883 23.992C22.0677 24.1148 22 24.2812 22 24.4548V37.5457C22 37.7193 22.0677 37.8858 22.1883 38.0085C22.3088 38.1313 22.4724 38.2002 22.6429 38.2002H39.3571C39.5276 38.2002 39.6912 38.1313 39.8117 38.0085C39.9323 37.8858 40 37.7193 40 37.5457V24.4548C40 24.2812 39.9323 24.1148 39.8117 23.992C39.6912 23.8693 39.5276 23.8003 39.3571 23.8003ZM31.3946 32.1715C31.2817 32.2608 31.1429 32.3093 31 32.3093C30.8571 32.3093 30.7183 32.2608 30.6054 32.1715L24.3123 27.188L25.1014 26.1546L31 30.8256L36.8986 26.1546L37.6877 27.188L31.3946 32.1715Z" fill="#CCAA60"/>
</g>
<defs>
<clipPath id="clip0_0_45">
<rect width="18" height="16" fill="white" transform="translate(22 23)"/>
</clipPath>
</defs>
</svg>
