<svg width="20" height="20" viewBox="0 0 20 20" fill="none" xmlns="http://www.w3.org/2000/svg">
<g id="IMAGE" clip-path="url(#clip0_0_568)">
<path id="Vector" d="M13.8655 2.39931C14.9461 2.40241 15.9816 2.81719 16.7458 3.55304C17.5099 4.28889 17.9407 5.28602 17.9439 6.32667V14.1806C17.9407 15.2212 17.5099 16.2183 16.7458 16.9542C15.9816 17.69 14.9461 18.1048 13.8655 18.1079H5.70952C4.62885 18.1048 3.59336 17.69 2.82921 16.9542C2.06506 16.2183 1.63433 15.2212 1.6311 14.1806V6.32667C1.63433 5.28602 2.06506 4.28889 2.82921 3.55304C3.59336 2.81719 4.62885 2.40241 5.70952 2.39931H13.8655ZM13.8655 0.828613H5.70952C2.56922 0.828613 0 3.30268 0 6.32667V14.1806C0 17.2046 2.56922 19.6786 5.70952 19.6786H13.8655C17.0058 19.6786 19.575 17.2046 19.575 14.1806V6.32667C19.575 3.30268 17.0058 0.828613 13.8655 0.828613Z" fill="#1F2732"/>
<path id="Vector_2" d="M15.0889 6.32671C14.8469 6.32671 14.6104 6.25761 14.4092 6.12816C14.208 5.99871 14.0512 5.81471 13.9586 5.59943C13.866 5.38416 13.8418 5.14728 13.889 4.91874C13.9362 4.69021 14.0527 4.48029 14.2238 4.31552C14.3949 4.15076 14.6129 4.03856 14.8502 3.9931C15.0875 3.94764 15.3335 3.97097 15.5571 4.06014C15.7806 4.14931 15.9717 4.30031 16.1062 4.49405C16.2406 4.6878 16.3123 4.91557 16.3123 5.14858C16.3127 5.30339 16.2813 5.45674 16.2199 5.59983C16.1586 5.74291 16.0685 5.87292 15.9548 5.98239C15.8411 6.09185 15.7061 6.17862 15.5575 6.23771C15.4089 6.2968 15.2497 6.32704 15.0889 6.32671ZM9.78749 7.11185C10.4328 7.11185 11.0636 7.29611 11.6001 7.64134C12.1367 7.98656 12.5548 8.47725 12.8018 9.05134C13.0487 9.62543 13.1133 10.2571 12.9874 10.8666C12.8616 11.476 12.5508 12.0359 12.0945 12.4752C11.6382 12.9146 11.0569 13.2139 10.424 13.3351C9.79111 13.4563 9.1351 13.3941 8.53893 13.1563C7.94276 12.9185 7.4332 12.5158 7.0747 11.9991C6.71619 11.4825 6.52484 10.875 6.52484 10.2537C6.52577 9.42067 6.86981 8.62205 7.48147 8.03304C8.09314 7.44403 8.92247 7.11274 9.78749 7.11185ZM9.78749 5.54115C8.8196 5.54115 7.87344 5.81754 7.06867 6.33535C6.26389 6.85317 5.63665 7.58916 5.26625 8.45026C4.89586 9.31135 4.79895 10.2589 4.98777 11.173C5.1766 12.0872 5.64268 12.9268 6.32709 13.5859C7.01149 14.2449 7.88347 14.6938 8.83277 14.8756C9.78206 15.0574 10.766 14.9641 11.6602 14.6074C12.5545 14.2508 13.3188 13.6467 13.8565 12.8718C14.3942 12.0968 14.6812 11.1857 14.6812 10.2537C14.6812 9.00382 14.1656 7.80518 13.2479 6.92141C12.3301 6.03765 11.0854 5.54115 9.78749 5.54115Z" fill="#1F2732"/>
</g>
<defs>
<clipPath id="clip0_0_568">
<rect width="20" height="20" fill="white"/>
</clipPath>
</defs>
</svg>
